# xmcd
#
# Track frame offsets:
#	150
#	13075
#	27375
#	39820
#	51185
#	63175
#	83040
#	94165
#	103997
#	117467
#	128625
#	140365
#	151537
#	168992
#	179397
#	197390
#	210342
#	225965
#
# Disc length: 3175
#
# Revision: 2
# Processed by: cddbd v1.5.1PL0 Copyright (c) Steve Scherf et al.
# Submitted via: audiograbber 1.80
# Normalized: r1:DSETVAR1,TDELIM( - )
#
DISCID=da0c6512
DTITLE=Various Artist - Country Juke-Box Hits - CD 1
DYEAR=1900
DGENRE=
TTITLE0=Kenny Rogers - Ruby don't take your love to town
TTITLE1=George Jones - It's a good year for the roses
TTITLE2=Johnny Paycheck - I'm not looking back anymore
TTITLE3=Patsy Cline - I've loved and lost again
TTITLE4=Johnny Cash - You're the nearest thing to heaven
TTITLE5=The Burrito Brothers - Burning embers
TTITLE6=Don Gibson - Oh lonesome me
TTITLE7=Ned Miller - From a jack to a king
TTITLE8=Laynn Anderson - Rose garden
TTITLE9=Waylon Jennings - Dream baby
TTITLE10=Lovin' Spoonful - Nashville cats
TTITLE11=Everly Brothers - Take a message to Mary
TTITLE12=Dick van Altena - Minstrel man
TTITLE13=Willie Nelson - Blame it on the time
TTITLE14=The Good Brothers - This could be serious
TTITLE15=Faron Young - It's four in the morning
TTITLE16=Michelle Wright - New fool at an old game
TTITLE17=Freddy Fender - Wasted day and wasted nights
EXTD=
EXTT0=
EXTT1=
EXTT2=
EXTT3=
EXTT4=
EXTT5=
EXTT6=
EXTT7=
EXTT8=
EXTT9=
EXTT10=
EXTT11=
EXTT12=
EXTT13=
EXTT14=
EXTT15=
EXTT16=
EXTT17=
PLAYORDER=
